<?xml version="1.0" encoding="iso-8859-1"?>
<!-- Generator: Adobe Illustrator 16.0.0, SVG Export Plug-In . SVG Version: 6.00 Build 0)  -->
<!DOCTYPE svg PUBLIC "-//W3C//DTD SVG 1.1//EN" "http://www.w3.org/Graphics/SVG/1.1/DTD/svg11.dtd">
<svg version="1.1" id="Capa_1" xmlns="http://www.w3.org/2000/svg" xmlns:xlink="http://www.w3.org/1999/xlink" x="0px" y="0px"
	 width="612.004px" height="612.004px" viewBox="0 0 612.004 612.004" style="enable-background:new 0 0 612.004 612.004;"
	 xml:space="preserve">
<g>
	<g>
		<g>
			<path d="M234.785,224.395c-3.494,5.743-6.795,11.168-10.299,17.518c-2.037,3.689-4.238,7.25-6.367,10.694
				c-2.261,3.656-4.395,7.107-6.335,10.68c-5.34,9.838-11.154,19.51-16.778,28.861l-0.463,0.771
				c-2.031,3.564-4.053,7.133-6.071,10.702c-4.373,7.726-8.896,15.718-13.477,23.532c-9.689,16.504-18.62,30.76-27.305,43.592
				c-0.881,1.303-1.734,2.619-2.584,3.959l10.788,7.08c6.21,4.074,12.458,8.174,18.693,12.27
				c34.367-61.795,62.622-111.203,90.636-158.49c-8.973-5.651-17.951-11.305-26.928-16.956
				C237.103,220.586,235.934,222.506,234.785,224.395z"/>
			<path d="M322.975,291.963c-10.501,0.015-20.196,0.025-30.552,0.025c-8.394,0-17.22-0.008-27.263-0.03
				c-3.799,6.979-7.694,14.019-11.469,20.838c-1.868,3.375-3.737,6.75-5.599,10.129c20.625-0.004,39.62-0.016,58.635-0.024
				c18.964-0.013,37.948-0.023,58.595-0.025c-6.155-10.041-12.361-20.571-18.23-30.937
				C338.294,291.946,330.432,291.956,322.975,291.963z"/>
			<path d="M416.127,288.55l0.008-0.004c-3.464-4.779-10.964-17.905-33.742-57.78c-5.421-9.488-10.102-17.682-12.721-22.19
				l-5.046-8.69c-5.543-9.543-11.274-19.409-16.881-29.145c-2.466-4.281-4.906-8.581-7.345-12.88
				c-2.926-5.158-5.951-10.49-8.968-15.688l-2.648-4.581c-4.612-7.977-9.382-16.226-14.323-24.096
				c-1.568-2.497-3.587-3.764-6.002-3.764c-1.359,0-2.823,0.384-4.35,1.14c-2.009,0.994-4.005,2.152-6.119,3.377
				c-1.817,1.055-3.695,2.146-5.663,3.171c-5.333,2.795-6.491,5.617-6.258,9.144c0.358,1.016,0.563,1.936,0.728,2.674
				c0.056,0.249,0.128,0.574,0.179,0.764c3.157,5.223,6.188,10.428,9.122,15.462c10.191,17.505,20.475,35.337,30.418,52.583
				c22.92,39.74,46.599,80.801,70.794,120.699c9.065-5.047,18.143-10.098,27.189-15.135
				C420.809,296.473,416.189,288.655,416.127,288.55z"/>
			<path d="M155.356,303.641c2.142-3.912,4.39-7.79,6.623-11.588c-1.86-0.006-3.667-0.013-5.456-0.018
				c-7.625-0.023-14.885-0.046-24.311-0.057c-10.333-0.022-20.993-0.032-31.455-0.038c0.018,8.544,0.049,22.021,0.078,30.742
				l1.484,0.004c14.621,0.046,26.343,0.082,41.727,0.138c1.958-3.72,4.132-7.24,6.25-10.67
				C152.1,309.234,153.803,306.477,155.356,303.641z"/>
			<path d="M123.339,439.443c-0.721,2.778-1.454,5.578-2.188,8.364c12.129-11,24.298-22.03,36.624-33.202
				c-3.946-2.621-7.921-5.263-11.895-7.902c-3.902-2.596-7.802-5.188-11.672-7.758c-1.968,8.381-4.282,16.633-6.537,24.672
				C126.217,428.807,124.712,434.174,123.339,439.443z"/>
			<path d="M277.666,213.209c0.387-0.626,0.771-1.246,1.151-1.863c3.049-4.933,6.201-10.033,8.833-15.083
				c1.42-2.74,2.172-5.608,1.95-7.477c-0.102-0.864-0.387-1.27-0.625-1.527c-5.64-6.106-13.258-9.51-19.968-12.034
				c-0.812-0.306-1.584-0.461-2.299-0.461c-2.703,0.001-4.918,2.291-6.302,4.212c-2.987,4.151-5.389,8.768-7.934,13.654
				c-0.701,1.348-1.417,2.726-2.156,4.108c5.121,3.082,10.199,6.141,15.289,9.207C269.608,208.357,273.622,210.772,277.666,213.209z
				"/>
			<path d="M442.652,334.609c-1.774-3.045-3.596-6.166-5.346-9.355c-6.648,3.934-13.375,7.813-19.914,11.58
				c-2.492,1.438-4.986,2.875-7.479,4.318c-0.15,0.086-0.301,0.174-0.455,0.262c0.068,0.119,0.137,0.236,0.203,0.352l4.676,8.078
				c3.636,6.275,7.372,12.73,11.063,19.158c5.188-3.041,10.409-6.082,15.497-9.039c4.04-2.35,8.081-4.701,12.116-7.061
				c-1.154-1.843-2.291-3.738-3.315-5.724C447.524,342.965,445.159,338.906,442.652,334.609z"/>
			<path d="M469.028,376.648c-1.563-1.099-2.955-1.652-4.142-1.652c-1.009,0-2.113,0.381-3.374,1.16
				c-4.896,3.028-9.919,5.906-14.772,8.688c-1.529,0.875-3.06,1.752-4.584,2.633c-4.381,2.531-4.856,4.15-4.132,8.056
				c2.167,11.705,8.303,21.026,18.761,28.504c2.136,1.526,4.375,2.953,6.743,4.467c2.049,1.307,4.167,2.658,6.26,4.107
				c7.364,5.112,12.811,11.452,16.276,18.922c2.303-6.879,2.996-14.125,3.321-21.123c-0.117-10.375-1.031-23.789-6.932-35.978
				C479.412,388.156,475.438,381.135,469.028,376.648z"/>
			<path d="M496.689,290.836c-2.381-0.006-4.763-0.015-7.144-0.016l-11.225-0.005l-11.072-0.004c-5.042,0-10.036,0.004-15.492,0.017
				c0.213,0.377,0.425,0.753,0.636,1.131c5.965,10.611,12.124,21.57,18.112,32.441c11.346-0.064,19.96-0.07,29.866-0.076
				c3.377-0.002,6.878-0.006,10.658-0.01l0.122-20.36l0.078-13.128c-2.112,0.018-4.375,0.027-6.902,0.027
				C501.781,290.852,499.237,290.844,496.689,290.836z"/>
			<path d="M305.999,0C137.273,0,0.002,137.272,0.002,306c0,168.73,137.271,306.004,305.997,306.004
				c168.731,0,306.003-137.273,306.003-306.004C612.002,137.272,474.73,0,305.999,0z M242.317,194.863
				c3.788-6.894,7.027-14.084,11.657-20.518c3.368-4.679,7.778-7.509,12.734-7.509c1.645,0,3.347,0.311,5.093,0.969
				c8.476,3.19,16.641,7.193,23.005,14.081c1.598,1.734,2.413,3.797,2.667,5.971c0.483,4.091-0.983,8.584-2.793,12.07
				c-4.029,7.729-8.941,15.124-13.412,22.612c-0.279,0.471-0.669,1.143-0.929,1.53c-13.18-7.927-25.852-15.573-38.922-23.432
				C239.813,198.273,241.5,196.371,242.317,194.863z M93.372,330.334c-0.744-1.131-0.442-2.414-0.449-3.639
				c-0.043-11.375-0.106-40.898-0.106-42.688c12.958,0.01,26.447,0.016,39.406,0.043c16.146,0.019,25.943,0.071,42.09,0.104
				c0.363,0.084,0.69,0.071,0.825,0.461c0.125,0.52-0.118,0.914-0.384,1.351c-4.162,7.157-8.471,14.233-12.443,21.482
				c-4.022,7.342-8.955,14.146-12.576,21.707c-0.566,1.166-1.397,1.604-2.676,1.604c-0.01,0-0.018,0-0.027,0
				c-19.782-0.069-33.224-0.108-53.016-0.172C93.809,330.588,93.603,330.43,93.372,330.334z M115.562,463.58
				c-1.348,1.221-2.683,2.449-4.038,3.664c-0.566,0.514-1.162,1.086-1.888,1.086c-0.25,0-0.517-0.068-0.802-0.23
				c-1.151-0.655-0.799-1.737-0.53-2.737c2.459-9.31,4.948-18.603,7.365-27.916c4.13-15.855,9.132-31.479,12.417-47.549
				c0.241-1.201,0.412-2.39,0.848-3.957c13.642,9.021,27.99,18.606,41.718,27.692C152.013,430.525,133.789,447.051,115.562,463.58z
				 M134.284,377.084c2.372-3.812,4.471-7.283,6.841-10.783c9.52-14.063,18.435-28.516,27.031-43.158
				c6.643-11.334,13.034-22.811,19.546-34.23c5.842-9.721,11.699-19.432,17.115-29.409c3.964-7.297,8.714-14.152,12.727-21.42
				c5.947-10.78,11.394-19.065,17.525-29.579c0.352-0.198,0.65-0.278,0.921-0.278c0.709,0,1.23,0.536,2.045,0.85
				c11.147,7.017,22.303,14.04,33.454,21.063c1.338,0.845,3.583,2.125,3.805,2.836c0.176,0.569,0.081,1.007-0.217,1.508
				c-33.877,57.038-65.35,112.593-97.709,170.88C162.965,395.898,148.426,386.369,134.284,377.084z M235.081,330.854
				c1.285-2.696,1.712-3.829,2.651-5.534c7.027-12.83,14.188-25.586,21.169-38.443c1.127-2.07,2.364-2.846,4.726-2.846
				c0.005,0,0.01,0,0.015,0c10.675,0.025,19.967,0.033,28.78,0.033c18.141,0,34.252-0.035,56.227-0.051
				c1.755,0,3.128,0.09,4.194,1.998c7.544,13.393,15.769,27.271,23.938,40.316c0.82,1.307,1.275,2.836,2.001,4.477
				C326.85,330.803,286.731,330.854,235.081,330.854z M392.36,325.855c-35.393-58.208-68.84-117.544-103.109-176.406
				c-3.031-5.205-6.063-10.407-9.178-15.557c-1.031-1.696-0.926-3.697-1.774-5.413c-1.075-8.626,3.025-14.244,10.361-18.087
				c4.029-2.105,7.859-4.607,11.934-6.627c2.653-1.314,5.319-1.963,7.869-1.963c5.035,0,9.611,2.534,12.714,7.476
				c5.955,9.481,11.498,19.224,17.115,28.913c5.51,9.494,10.852,19.084,16.326,28.591c7.271,12.625,14.601,25.212,21.911,37.811
				c9.397,16.187,45.06,79.297,46.419,79.918c0,0,8.376,14.152,11.945,22.382c-13.286,7.399-26.651,14.838-39.979,22.251
				C393.459,328.373,393.047,326.992,392.36,325.855z M423.297,378.957c-1.126,0-1.84-0.898-2.604-2.234
				c-5.921-10.354-11.921-20.664-17.89-30.987c-4.181-7.229-4.175-7.22,3.144-11.445c10.228-5.918,20.489-11.766,30.635-17.824
				c1.114-0.666,2.022-1.02,2.811-1.02c1.205,0,2.122,0.823,3.05,2.598c4.496,8.643,9.82,16.824,14.307,25.498
				c1.618,3.139,3.651,6.188,5.595,9.213c0.425,0.666,0.744,1.396,0.926,1.756c0.449,1.826-0.891,2.101-1.641,2.537
				c-12.118,7.115-24.306,14.127-36.411,21.262C424.451,378.756,423.828,378.957,423.297,378.957z M489.126,463.855
				c-1.003,1.688-1.766,4.266-4.038,4.266c-0.107,0-0.219-0.006-0.333-0.021c-2.854-0.299-2.749-3.231-3.231-5.383
				c-2.262-10.049-7.889-17.789-16.248-23.594c-4.303-2.98-8.85-5.603-13.101-8.644c-11.625-8.309-19.325-19.352-21.946-33.508
				c-1.437-7.739,1.167-12.438,7.963-16.364c6.403-3.697,12.861-7.308,19.147-11.195c2.581-1.598,5.089-2.348,7.545-2.348
				c2.957,0,5.84,1.086,8.69,3.086c7.503,5.254,12.132,12.819,16.014,20.821c6.128,12.654,7.59,26.271,7.727,39.572
				C496.767,442.562,495.113,453.766,489.126,463.855z M518.937,327.771c-0.01,1.338-0.003,2.682-0.003,3.729
				c-0.909,0.654-1.719,0.773-2.472,0.773c-0.432,0-0.844-0.039-1.245-0.039c-17.518,0.032-28.692-0.002-46.21,0.102
				c-0.024,0-0.05,0-0.073,0c-2.313,0-3.509-0.729-4.657-2.82c-8.263-15.02-16.706-29.938-25.092-44.891
				c-0.2-1.576,0.387-1.933,1.132-1.933c0.614,0,1.34,0.241,1.824,0.241c0.003,0,0.009,0,0.014,0
				c9.521-0.04,17.253-0.049,25.098-0.049c6.91,0,13.908,0.008,22.299,0.01c4.926,0.001,9.854,0.033,14.776,0.033
				c3.688,0,7.378-0.018,11.067-0.076c0.066-0.001,0.135-0.001,0.2-0.001c2.397,0,3.661,0.723,3.591,3.299
				C519.104,300.022,519.018,313.898,518.937,327.771z"/>
		</g>
	</g>
</g>
<g>
</g>
<g>
</g>
<g>
</g>
<g>
</g>
<g>
</g>
<g>
</g>
<g>
</g>
<g>
</g>
<g>
</g>
<g>
</g>
<g>
</g>
<g>
</g>
<g>
</g>
<g>
</g>
<g>
</g>
</svg>
