<?xml version="1.0" standalone="no"?>
<!DOCTYPE svg PUBLIC "-//W3C//DTD SVG 20010904//EN"
 "http://www.w3.org/TR/2001/REC-SVG-20010904/DTD/svg10.dtd">
<svg version="1.0" xmlns="http://www.w3.org/2000/svg"
 width="507.000000pt" height="180.000000pt" viewBox="0 0 507.000000 180.000000"
 preserveAspectRatio="xMidYMid meet">
<metadata>
Created by potrace 1.10, written by Peter Selinger 2001-2011
</metadata>
<g transform="translate(0.000000,180.000000) scale(0.100000,-0.100000)"
fill="#009688" stroke="none">
<path d="M54 1685 c-2 -5 -6 -176 -7 -380 -2 -203 -7 -380 -11 -392 -13 -37
34 -30 61 8 35 51 592 608 726 728 15 13 27 28 27 35 0 15 -791 16 -796 1z
m212 -94 c16 -5 55 -16 86 -26 82 -24 168 -70 168 -91 0 -6 -21 -25 -47 -42
-27 -17 -91 -74 -143 -128 -99 -101 -149 -144 -168 -144 -21 0 -34 104 -31
251 4 127 7 150 23 168 21 23 63 27 112 12z m252 -28 c-10 -2 -26 -2 -35 0
-10 3 -2 5 17 5 19 0 27 -2 18 -5z"/>
<path d="M2192 1674 c-5 -9 -5 -34 -1 -58 5 -22 8 -268 8 -545 l-1 -504 28
-15 c28 -15 43 -19 169 -42 120 -23 264 19 343 98 36 37 72 88 72 105 0 7 5
18 11 24 19 19 33 112 32 213 0 153 -23 224 -96 306 -43 48 -66 63 -149 98
-53 23 -158 21 -219 -5 -27 -12 -53 -18 -57 -14 -4 4 -7 84 -7 178 l0 172 -62
3 c-49 2 -63 0 -71 -14z m353 -415 c57 -14 126 -75 157 -137 21 -42 23 -60 22
-182 0 -148 -14 -197 -70 -253 -62 -62 -90 -72 -206 -72 -58 0 -110 3 -114 7
-7 8 -11 615 -3 622 7 6 102 24 137 25 18 0 53 -4 77 -10z"/>
<path d="M3015 1678 c-61 -33 -72 -92 -24 -132 44 -37 80 -34 118 9 35 40 38
61 13 91 -35 41 -71 52 -107 32z"/>
<path d="M3279 1683 c0 -4 0 -240 0 -523 1 -283 -2 -539 -7 -568 -11 -65 -2
-74 73 -70 l57 3 0 580 0 580 -61 3 c-34 2 -61 -1 -62 -5z"/>
<path d="M3589 1675 c-34 -18 -53 -68 -38 -98 39 -77 133 -73 162 6 10 26 -19
82 -49 96 -32 14 -43 14 -75 -4z"/>
<path d="M4010 1600 c-8 -6 -31 -14 -50 -20 -49 -13 -59 -34 -49 -100 14 -99
12 -119 -14 -125 -12 -4 -35 -1 -50 4 -15 6 -34 8 -42 5 -21 -8 -29 -47 -18
-81 9 -26 13 -28 68 -28 l58 0 1 -305 c1 -338 0 -334 71 -393 40 -33 139 -54
192 -41 36 9 38 11 41 53 5 65 0 71 -47 60 -53 -12 -104 12 -126 57 -20 43
-23 569 -2 577 6 2 41 0 77 -4 35 -5 70 -7 76 -5 17 6 25 65 13 88 -10 19 -17
20 -89 14 -64 -5 -80 -4 -87 8 -5 9 -4 63 1 121 9 109 4 133 -24 115z"/>
<path d="M1249 1370 c-53 -3 -109 -11 -125 -17 -16 -6 -46 -14 -66 -18 -21 -3
-40 -10 -43 -15 -3 -5 -6 -186 -6 -402 l-1 -393 62 0 62 0 -1 358 -2 357 26
10 c24 9 124 13 184 7 21 -2 27 4 35 33 6 19 15 41 20 48 20 32 -21 41 -145
32z"/>
<path d="M1585 1355 c-22 -8 -50 -15 -61 -15 -12 0 -31 -8 -43 -17 l-22 -18
21 -42 c19 -41 42 -54 54 -34 11 17 144 51 199 51 63 0 137 -29 165 -65 11
-13 25 -52 31 -85 17 -84 10 -90 -91 -90 -148 0 -280 -44 -354 -117 -47 -47
-53 -57 -59 -108 -12 -91 1 -153 41 -202 69 -84 231 -129 374 -103 36 7 83 15
105 19 22 4 55 14 73 21 l32 15 0 282 c0 351 -10 403 -93 466 -60 45 -109 57
-225 57 -67 -1 -122 -6 -147 -15z m344 -404 c9 -6 12 -18 7 -36 -4 -15 -7 -86
-7 -157 0 -149 7 -140 -116 -152 -190 -18 -300 62 -271 198 17 80 101 129 253
146 91 10 119 11 134 1z"/>
<path d="M2994 1358 c-3 -5 -5 -194 -5 -420 l0 -413 60 -3 c34 -2 61 1 61 5 3
175 -1 827 -5 831 -8 8 -106 8 -111 0z"/>
<path d="M3574 1358 c-4 -6 -7 -195 -7 -422 l0 -411 58 -3 c75 -4 84 4 73 70
-5 29 -8 212 -7 406 1 194 -1 355 -4 358 -11 11 -107 12 -113 2z"/>
<path d="M4254 1361 c-8 -9 -4 -40 10 -68 8 -15 22 -47 30 -70 9 -24 23 -61
31 -83 8 -22 21 -57 29 -77 8 -21 21 -57 30 -80 9 -24 23 -61 31 -83 8 -22 22
-58 30 -80 8 -22 22 -58 30 -80 8 -22 22 -59 31 -82 9 -24 22 -56 29 -73 7
-16 16 -38 19 -48 6 -17 -19 -90 -50 -149 -8 -14 -14 -31 -14 -37 0 -6 -14
-40 -31 -76 -17 -36 -29 -72 -26 -79 4 -9 21 -12 64 -8 65 5 83 15 83 46 0 12
4 26 9 31 5 6 14 26 19 45 6 19 20 60 32 90 40 105 51 135 57 155 2 11 11 34
18 50 7 17 20 48 28 70 18 50 40 107 61 163 9 23 23 61 32 85 9 23 22 58 29
77 7 19 20 54 29 78 9 23 22 59 30 80 43 112 61 152 68 152 13 0 9 50 -4 55
-7 3 -40 2 -72 -2 l-60 -8 -19 -65 c-11 -36 -23 -74 -28 -85 -13 -31 -39 -107
-49 -140 -8 -28 -16 -54 -45 -135 -7 -19 -21 -62 -30 -95 -10 -33 -22 -70 -26
-83 -5 -13 -9 -36 -9 -52 0 -38 -9 -60 -25 -60 -19 0 -21 5 -40 95 -9 44 -20
84 -26 89 -5 6 -9 19 -9 29 0 10 -6 33 -13 50 -16 37 -64 177 -77 222 -11 40
-29 92 -46 133 -8 18 -14 43 -14 56 0 13 -7 29 -15 36 -14 12 -121 21 -131 11z"/>
<path d="M452 1112 c-79 -71 -74 -75 76 -67 70 3 136 8 147 10 11 2 28 0 39
-4 17 -7 19 -20 18 -202 l0 -194 -29 -17 c-42 -27 -214 -25 -276 2 -69 31
-141 101 -173 170 -15 33 -32 60 -37 60 -5 0 -28 -20 -53 -45 -50 -52 -50 -53
13 -136 104 -135 267 -200 451 -178 119 14 180 26 203 42 20 15 21 22 21 309
l0 293 -173 2 -174 2 -53 -47z"/>
<path d="M1000 321 c-11 -7 -15 -27 -15 -78 0 -66 1 -68 25 -68 18 0 26 6 28
23 4 26 8 27 30 6 15 -15 17 -15 30 5 20 29 32 26 32 -9 0 -20 5 -30 15 -30
12 0 15 15 15 74 0 42 -5 78 -11 81 -14 9 -49 -24 -49 -47 0 -32 -35 -21 -53
17 -18 37 -23 40 -47 26z"/>
<path d="M1215 304 c-46 -49 -22 -127 42 -140 69 -14 113 94 60 144 -32 30
-72 28 -102 -4z m79 -30 c21 -20 20 -27 -3 -55 l-20 -24 -25 25 c-24 24 -25
27 -10 48 18 26 37 28 58 6z"/>
<path d="M1382 322 c-9 -6 -12 -30 -10 -78 l3 -69 38 -3 c55 -5 75 16 75 77 0
27 -4 54 -8 61 -9 15 -81 24 -98 12z m63 -52 c-3 -5 -13 -10 -21 -10 -8 0 -14
5 -14 10 0 6 9 10 21 10 11 0 17 -4 14 -10z m5 -56 c0 -11 -5 -14 -16 -10 -9
3 -18 6 -20 6 -3 0 -2 5 1 10 10 16 35 12 35 -6z"/>
<path d="M1526 323 c-3 -3 -6 -37 -6 -75 0 -54 3 -70 16 -75 23 -9 32 13 33
79 0 46 -4 60 -18 68 -10 5 -21 6 -25 3z"/>
<path d="M1613 318 c-6 -7 -8 -43 -5 -80 5 -73 17 -86 68 -74 31 8 31 24 0 36
-27 10 -40 40 -31 70 7 22 -2 60 -14 60 -5 0 -13 -6 -18 -12z"/>
<path d="M1731 316 c-12 -14 -13 -65 -4 -117 3 -22 11 -28 39 -34 22 -4 41 -2
50 6 18 15 9 29 -22 29 -15 0 -24 6 -24 15 0 8 9 15 20 15 11 0 20 5 20 11 0
6 -9 13 -20 16 -28 7 -25 33 3 33 29 0 37 7 30 26 -7 18 -77 18 -92 0z"/>
<path d="M1923 323 c-9 -3 -13 -29 -13 -79 0 -60 3 -74 15 -74 9 0 18 7 21 15
4 8 15 15 25 15 11 0 22 -7 25 -15 7 -17 34 -21 34 -5 0 6 -7 24 -15 41 -14
26 -14 30 0 35 21 8 19 30 -5 54 -19 19 -59 25 -87 13z"/>
<path d="M2073 324 c-14 -6 -19 -139 -5 -147 24 -15 69 -16 87 -3 22 16 24 13
-32 32 -16 5 -15 7 5 23 l24 17 -24 16 -23 16 28 11 c16 6 27 17 25 24 -5 12
-63 20 -85 11z"/>
<path d="M2193 323 c-20 -8 -15 -22 12 -35 21 -10 24 -16 22 -62 -2 -46 0 -51
21 -54 21 -3 22 0 22 53 0 40 4 57 15 61 8 4 15 15 15 25 0 16 -7 19 -47 18
-27 0 -54 -3 -60 -6z"/>
<path d="M2364 318 c-6 -7 -16 -26 -23 -43 -7 -16 -19 -43 -27 -58 -8 -16 -14
-33 -14 -38 0 -16 33 -10 54 10 16 14 27 17 44 10 12 -4 22 -13 22 -19 0 -5 7
-10 15 -10 19 0 19 29 1 67 -7 15 -20 41 -27 57 -16 34 -32 42 -45 24z"/>
<path d="M2478 318 c-2 -7 -2 -44 0 -81 3 -57 6 -68 20 -65 25 5 25 151 1 156
-9 2 -18 -3 -21 -10z"/>
<path d="M2567 323 c-4 -3 -7 -37 -7 -74 0 -59 3 -70 21 -79 24 -13 79 -4 79
14 0 6 -14 17 -31 23 -30 12 -31 14 -26 54 3 23 3 48 0 55 -5 15 -25 19 -36 7z"/>
<path d="M2812 313 c-7 -15 -9 -89 -3 -133 2 -22 29 -8 36 17 l7 28 20 -28
c21 -29 58 -37 58 -12 0 8 -4 15 -9 15 -15 0 -24 41 -12 53 16 16 13 35 -9 57
-25 25 -76 26 -88 3z m58 -38 c0 -8 -4 -15 -9 -15 -13 0 -22 16 -14 24 11 11
23 6 23 -9z"/>
<path d="M2967 324 c-4 -4 -7 -40 -7 -80 l0 -72 35 -6 c39 -8 55 -2 55 20 0 8
-10 14 -25 14 -16 0 -25 6 -25 15 0 8 6 15 14 15 24 0 30 21 7 27 -30 8 -26
33 5 33 19 0 25 5 22 18 -2 11 -14 18 -38 20 -20 2 -39 0 -43 -4z"/>
<path d="M3176 323 c-3 -3 -6 -39 -6 -80 0 -57 3 -73 14 -73 9 0 16 12 18 32
4 43 19 44 47 3 32 -48 47 -45 54 11 6 57 -4 98 -26 102 -13 3 -17 -4 -17 -27
0 -37 -17 -41 -30 -7 -9 26 -43 50 -54 39z"/>
<path d="M3444 322 c-6 -4 -17 -22 -25 -40 -16 -38 -32 -37 -39 4 -5 30 -27
41 -57 29 -14 -5 -13 -8 5 -21 12 -8 22 -22 22 -31 0 -9 8 -34 17 -55 21 -47
46 -50 63 -5 6 17 18 44 26 59 22 41 15 78 -12 60z"/>
<path d="M3507 324 c-4 -4 -7 -40 -7 -80 l0 -72 35 -6 c20 -4 40 -4 45 -1 18
11 11 34 -12 37 -29 4 -34 24 -7 31 23 6 17 27 -7 27 -24 0 -10 25 15 28 37 6
22 36 -19 40 -20 2 -39 0 -43 -4z"/>
<path d="M3800 311 c0 -10 7 -21 15 -25 11 -4 15 -21 15 -61 0 -48 2 -55 20
-55 18 0 20 7 20 55 0 45 4 56 21 65 32 18 6 40 -47 40 -37 0 -44 -3 -44 -19z"/>
<path d="M3953 322 c-14 -9 -23 -136 -10 -148 12 -12 76 -9 89 4 9 9 7 13 -5
17 -56 18 -54 15 -34 29 9 7 17 17 17 21 0 4 -8 14 -17 21 -20 14 -22 12 33
29 13 4 14 8 4 20 -13 16 -57 20 -77 7z"/>
<path d="M4077 323 c-4 -3 -7 -37 -7 -75 0 -64 2 -69 26 -78 41 -16 55 -12 90
26 42 43 42 60 5 102 -24 26 -38 32 -69 32 -21 0 -42 -3 -45 -7z m78 -73 c0
-28 -4 -36 -21 -38 -17 -2 -22 3 -26 26 -6 41 1 54 26 50 17 -2 21 -10 21 -38z"/>
<path d="M3089 313 c-1 -5 -2 -32 -4 -61 -2 -58 13 -89 39 -79 13 5 16 21 16
77 0 68 -1 70 -25 70 -14 0 -26 -3 -26 -7z"/>
<path d="M3627 260 c-8 -69 -2 -90 24 -90 14 0 19 7 19 30 0 38 24 40 42 3 7
-16 23 -29 36 -31 21 -3 22 0 22 73 0 74 -1 76 -22 73 -19 -2 -22 -8 -20 -30
2 -16 -1 -28 -7 -28 -14 0 -41 29 -41 46 0 8 -10 14 -24 14 -21 0 -24 -5 -29
-60z"/>
<path d="M2687 204 c-11 -11 -8 -52 3 -59 17 -10 41 16 38 39 -3 21 -28 33
-41 20z"/>
</g>
</svg>
